<svg width="32" height="32" viewBox="0 0 32 32" fill="none" xmlns="http://www.w3.org/2000/svg">
<path d="M3.67828 14.482H11.9364C13.4541 14.482 14.332 13.5802 14.332 12.0471V3.72044C14.332 2.93887 13.7517 2.32262 12.9631 2.32262C12.1745 2.32262 11.609 2.92385 11.609 3.72044V4.98295L11.9215 10.2284L7.99334 6.06511L3.42536 1.40579C3.1724 1.13525 2.83016 1 2.47307 1C1.62494 1 1 1.57112 1 2.41281C1 2.80358 1.1488 3.17934 1.41663 3.44991L5.99948 8.07915L10.1211 12.0321L4.92817 11.7314H3.67828C2.88967 11.7314 2.27963 12.2876 2.27963 13.0992C2.27963 13.8958 2.8748 14.482 3.67828 14.482ZM17.9477 29.7375C18.7363 29.7375 19.3017 29.1513 19.3017 28.3397V26.9118L18.9893 21.6814L22.9174 25.8447L27.5896 30.5942C27.8425 30.8647 28.1698 31 28.5419 31C29.375 31 30 30.4288 30 29.5872C30 29.1964 29.8662 28.8206 29.5984 28.5501L24.9113 23.8156L20.7748 19.8627L25.9826 20.1633H27.3962C28.1847 20.1633 28.7948 19.6072 28.7948 18.8106C28.7948 17.999 28.1996 17.4278 27.3962 17.4278H18.9744C17.4567 17.4278 16.5788 18.3146 16.5788 19.8477V28.3397C16.5788 29.1363 17.1442 29.7375 17.9477 29.7375Z" fill="black"/>
</svg>
