<svg width="32" height="32" viewBox="0 0 32 32" fill="none" xmlns="http://www.w3.org/2000/svg">
<path d="M3.36492 13.7201C4.17033 13.7201 4.74783 13.0912 4.74783 12.2579V10.9371L4.44391 5.44967L8.44071 9.80502L13.1213 14.6792C13.3797 14.9622 13.714 15.0881 14.0788 15.0881C14.945 15.0881 15.5833 14.5063 15.5833 13.6258C15.5833 13.2013 15.4465 12.8239 15.1729 12.5409L10.4771 7.69809L6.26752 3.56287L11.5865 3.87735H12.8478C13.6532 3.87735 14.2763 3.2956 14.2763 2.44651C14.2763 1.59746 13.6684 1 12.8478 1H4.4135C2.8634 1 1.9668 1.92765 1.9668 3.53144V12.2579C1.9668 13.0755 2.55948 13.7201 3.36492 13.7201ZM20.036 31H28.4703C30.0204 31 30.9323 30.0723 30.9323 28.4686V19.7421C30.9323 18.9245 30.3394 18.2799 29.519 18.2799C28.7286 18.2799 28.1359 18.9088 28.1359 19.7421V21.0629L28.4551 26.5503L24.4431 22.195L19.7776 17.3208C19.5193 17.0378 19.1697 16.9119 18.805 16.9119C17.954 16.9119 17.3005 17.4937 17.3005 18.3742C17.3005 18.7987 17.4525 19.1761 17.726 19.4591L22.4067 24.3019L26.6314 28.4371L21.3125 28.1226H20.036C19.2305 28.1226 18.6075 28.7044 18.6075 29.5535C18.6075 30.4025 19.2305 31 20.036 31Z" fill="black"/>
</svg>
