<svg width="32" height="32" viewBox="0 0 33 32" fill="none" xmlns="http://www.w3.org/2000/svg">
<path d="M16.5 31.9219C25.0469 31.9219 32.0781 24.8906 32.0781 16.3438C32.0781 7.79688 25.0469 0.765625 16.5 0.765625C7.95312 0.765625 0.921875 7.79688 0.921875 16.3438C0.921875 24.8906 7.95312 31.9219 16.5 31.9219ZM15.3438 9.625L12.8438 16.6094C11.9844 16.6719 11.2969 17.375 11.0781 18.2344L9.23438 25.6094C6.48438 23.4531 4.73438 20.1094 4.73438 16.3438C4.73438 9.8125 9.96875 4.5625 16.5 4.5625C23.0156 4.5625 28.2656 9.8125 28.2812 16.3438C28.2812 20.1094 26.5312 23.4531 23.7969 25.6094L21.9531 18.25C21.7188 17.375 21.0469 16.6719 20.1875 16.6094L17.6875 9.625C17.2812 8.51562 15.7344 8.51562 15.3438 9.625ZM16.5 28.1094C14.7812 28.1094 13.1562 27.75 11.6875 27.0938L13.625 19.1562H19.4062L21.3438 27.0938C19.8594 27.75 18.2344 28.1094 16.5 28.1094Z" fill="black"/>
</svg>
