<svg width="31" height="31" viewBox="0 0 32 32"  xmlns="http://www.w3.org/2000/svg">
<path class="icon" d="M29.5215 4.58808L30.6134 3.4642C31.1289 2.9174 31.1289 2.18839 30.6134 1.6872L30.2646 1.32268C29.7945 0.851845 29.0514 0.912593 28.5511 1.39861L27.4443 2.49217L29.5215 4.58808ZM11.2805 21.1582L14.2373 19.8672L28.3996 5.69682L26.3222 3.64644L12.1751 17.8168L10.8105 20.6722C10.6891 20.9304 10.9924 21.2797 11.2805 21.1582ZM5.76117 31H23.5625C26.2919 31 27.8688 29.4205 27.8688 26.2917V10.0558L25.4276 12.501V26.1702C25.4276 27.7498 24.5784 28.5547 23.5322 28.5547H5.80666C4.29037 28.5547 3.44123 27.7498 3.44123 26.1702V8.93186C3.44123 7.35232 4.29037 6.53215 5.80666 6.53215H19.6201L22.0614 4.08689H5.76117C2.60725 4.08689 1 5.66643 1 8.79516V26.2917C1 29.4356 2.60725 31 5.76117 31Z" />
</svg>
