<svg width="32" height="32" viewBox="0 0 32 32" fill="none" xmlns="http://www.w3.org/2000/svg">
<path class="icon" d="M15.9999 31.9999C24.7528 31.9999 32 24.7372 32 15.9999C32 7.24703 24.7372 0 15.9843 0C7.24702 0 0 7.24703 0 15.9999C0 24.7372 7.26273 31.9999 15.9999 31.9999ZM15.9999 29.3332C8.59603 29.3332 2.68233 23.4038 2.68233 15.9999C2.68233 8.59604 8.58035 2.66666 15.9843 2.66666C23.3882 2.66666 29.3175 8.59604 29.3333 15.9999C29.349 23.4038 23.4038 29.3332 15.9999 29.3332ZM7.85879 17.9294C7.85879 21.694 10.6039 24.047 14.2588 24.047H16.4078C17.1137 24.047 17.6313 23.6391 17.6313 22.9176C17.6313 22.196 17.1137 21.8038 16.4391 21.8038H14.2588C11.8902 21.8038 10.1647 20.2666 10.1647 17.8038C10.1647 15.3882 11.9372 14.0548 14.2431 14.0548H18.9333L20.7842 13.9921L19.8744 14.6666L17.9137 16.549C17.6784 16.7686 17.5685 17.0666 17.5685 17.3646C17.5685 18.0078 18.0548 18.5097 18.6823 18.5097C19.0117 18.5097 19.2627 18.3999 19.4823 18.1803L23.6705 13.898C23.9215 13.647 24.094 13.3176 24.094 12.9568C24.094 12.5804 23.9215 12.2509 23.6705 11.9999L19.498 7.76467C19.2784 7.52938 19.0274 7.41958 18.698 7.41958C18.0548 7.41958 17.5685 7.92154 17.5685 8.56469C17.5685 8.8941 17.7097 9.17645 17.9293 9.38035L19.545 10.949L20.7842 11.9215L18.9333 11.8588H14.2431C10.5882 11.8588 7.85879 14.149 7.85879 17.9294Z" />
</svg>
