<svg width="32" height="32" viewBox="0 0 32 32" fill="none" xmlns="http://www.w3.org/2000/svg">
<path d="M15.9999 31.9999C24.7528 31.9999 32 24.7372 32 15.9999C32 7.24703 24.7372 0 15.9843 0C7.24702 0 0 7.24703 0 15.9999C0 24.7372 7.26273 31.9999 15.9999 31.9999ZM15.9999 29.3332C8.59603 29.3332 2.68233 23.4038 2.68233 15.9999C2.68233 8.59604 8.58035 2.66666 15.9843 2.66666C23.3882 2.66666 29.3175 8.59604 29.3333 15.9999C29.349 23.4038 23.4038 29.3332 15.9999 29.3332ZM24.094 17.9294C24.094 14.149 21.3646 11.8588 17.7097 11.8588H13.0196L11.1686 11.9215L12.4078 10.949L14.0235 9.38035C14.2431 9.17645 14.3842 8.8941 14.3842 8.56469C14.3842 7.92154 13.898 7.41958 13.2549 7.41958C12.9254 7.41958 12.6745 7.52938 12.4549 7.76467L8.28233 11.9999C8.03133 12.2509 7.85879 12.5804 7.85879 12.9568C7.85879 13.3176 8.03133 13.647 8.28233 13.898L12.4705 18.1803C12.6902 18.3999 12.9411 18.5097 13.2705 18.5097C13.898 18.5097 14.3842 18.0078 14.3842 17.3646C14.3842 17.0666 14.2744 16.7686 14.0392 16.549L12.0784 14.6666L11.1686 13.9921L13.0196 14.0548H17.7097C20.0156 14.0548 21.7882 15.3882 21.7882 17.8038C21.7882 20.2666 20.0627 21.8038 17.6941 21.8038H15.5136C14.8391 21.8038 14.3215 22.196 14.3215 22.9176C14.3215 23.6391 14.8391 24.047 15.545 24.047H17.6941C21.3489 24.047 24.094 21.694 24.094 17.9294Z" fill="black"/>
</svg>
